PathFileType	4	(X/Y/Z)	 2.8Hzhigh3min.trc
DataRate	CameraRate	NumFrames	NumMarkers	Units	OrigDataRate	OrigDataStartFrame	OrigNumFrames
200	200	7	39	m	200	1	987
Frame#	Time	C7			LSH			RSH			MAN			RASI			LASI			HIPR			HIPL			RPSI			LPSI			COX			RTHI1			RTHI2			RTHI3			RTHI4			RLKN			RMKN			RSHA1			RSHA2			RSHA3			RSHA4			RHEEL			RMET5			RMET1			RTOE			LTHI1			LTHI2			LTHI3			LTHI4			LLKN			LMKN			LSHA1			LSHA2			LSHA3			LSHA4			LHEEL			LMET5			LMET1			LTOE			
		X1	Y1	Z1	X2	Y2	Z2	X3	Y3	Z3	X4	Y4	Z4	X5	Y5	Z5	X6	Y6	Z6	X7	Y7	Z7	X8	Y8	Z8	X9	Y9	Z9	X10	Y10	Z10	X11	Y11	Z11	X12	Y12	Z12	X13	Y13	Z13	X14	Y14	Z14	X15	Y15	Z15	X16	Y16	Z16	X17	Y17	Z17	X18	Y18	Z18	X19	Y19	Z19	X20	Y20	Z20	X21	Y21	Z21	X22	Y22	Z22	X23	Y23	Z23	X24	Y24	Z24	X25	Y25	Z25	X26	Y26	Z26	X27	Y27	Z27	X28	Y28	Z28	X29	Y29	Z29	X30	Y30	Z30	X31	Y31	Z31	X32	Y32	Z32	X33	Y33	Z33	X34	Y34	Z34	X35	Y35	Z35	X36	Y36	Z36	X37	Y37	Z37	X38	Y38	Z38	X39	Y39	Z39	
1	0.0050	-0.282865	1.480090	-0.524692	-0.257147	1.466180	-0.714980	-0.234488	1.468147	-0.349313	-0.125237	1.443801	-0.544494	-0.138283	0.960512	-0.427017	-0.153480	0.971018	-0.664438	-0.215028	1.035470	-0.369041	-0.226691	1.047475	-0.701595	-0.320005	1.023422	-0.494371	-0.324177	1.030344	-0.569718	-0.321502	1.023301	-0.531491	-0.234755	0.789976	-0.345310	-0.219057	0.733696	-0.338030	-0.155883	0.750016	-0.334244	-0.165425	0.810081	-0.342768	-0.195438	0.463833	-0.360171	-0.157717	0.456128	-0.477897	-0.279671	0.324150	-0.358863	-0.304774	0.289310	-0.372486	-0.251608	0.260898	-0.373508	-0.230549	0.294474	-0.365678	-0.396803	0.110394	-0.459810	-0.251414	0.033566	-0.382139	-0.195702	0.049431	-0.449958	-0.167196	0.037511	-0.446515	-0.273697	0.767037	-0.727644	-0.248043	0.712348	-0.740857	-0.193265	0.737362	-0.763912	-0.210828	0.794754	-0.754081	-0.208031	0.484227	-0.736212	-0.158164	0.470144	-0.623814	-0.319796	0.287748	-0.707202	-0.336552	0.253453	-0.693631	-0.281739	0.227614	-0.710856	-0.271921	0.268597	-0.723179	-0.396523	0.101827	-0.612376	-0.257230	0.036526	-0.713282	-0.197770	0.049935	-0.650629	-0.168578	0.036614	-0.659367	
2	0.0100	-0.282845	1.483924	-0.524571	-0.256830	1.470404	-0.714806	-0.234515	1.472269	-0.349296	-0.125270	1.447857	-0.544186	-0.137216	0.964884	-0.427280	-0.153182	0.975380	-0.664412	-0.213593	1.039513	-0.369161	-0.225916	1.051946	-0.701524	-0.319250	1.026978	-0.494099	-0.323507	1.033917	-0.569644	-0.321061	1.026985	-0.531336	-0.234288	0.794067	-0.345496	-0.218667	0.737506	-0.338001	-0.155465	0.753428	-0.334668	-0.164641	0.813579	-0.343120	-0.196978	0.467245	-0.360147	-0.160366	0.459403	-0.478276	-0.280568	0.326998	-0.358163	-0.305379	0.292283	-0.371429	-0.252151	0.263870	-0.372589	-0.231311	0.297671	-0.365069	-0.396148	0.112591	-0.457999	-0.251107	0.033547	-0.381767	-0.195742	0.049448	-0.449783	-0.167419	0.037474	-0.446600	-0.274204	0.771089	-0.727415	-0.248802	0.716272	-0.740561	-0.193874	0.740996	-0.763632	-0.211138	0.798466	-0.753817	-0.210429	0.487849	-0.735763	-0.161230	0.473553	-0.623059	-0.321036	0.290198	-0.707615	-0.337556	0.255733	-0.694240	-0.282538	0.230422	-0.711671	-0.273053	0.271527	-0.723822	-0.395952	0.104085	-0.613866	-0.256989	0.036537	-0.713641	-0.197841	0.049973	-0.650929	-0.168771	0.036611	-0.659283	
3	0.0150	-0.282782	1.487949	-0.524403	-0.256544	1.475001	-0.714585	-0.234515	1.476716	-0.349241	-0.125338	1.452210	-0.543894	-0.136142	0.969607	-0.427410	-0.152870	0.980020	-0.664437	-0.212362	1.043907	-0.369332	-0.225260	1.056637	-0.701367	-0.318488	1.030795	-0.493832	-0.322713	1.037678	-0.569652	-0.320682	1.030893	-0.531206	-0.233648	0.798290	-0.345443	-0.218278	0.741553	-0.337906	-0.155015	0.757109	-0.335083	-0.163850	0.817362	-0.343494	-0.198742	0.470922	-0.360101	-0.163104	0.462825	-0.478586	-0.281629	0.330025	-0.357490	-0.306163	0.295300	-0.370501	-0.252790	0.267031	-0.371651	-0.232236	0.301078	-0.364366	-0.395358	0.114973	-0.456187	-0.250772	0.033535	-0.381393	-0.195757	0.049473	-0.449605	-0.167655	0.037467	-0.446668	-0.274640	0.775425	-0.727165	-0.249501	0.720496	-0.740274	-0.194398	0.744925	-0.763350	-0.211347	0.802461	-0.753565	-0.212861	0.491705	-0.735261	-0.164326	0.477265	-0.622231	-0.322321	0.292944	-0.708033	-0.338560	0.258272	-0.694770	-0.283375	0.233509	-0.712534	-0.274239	0.274749	-0.724487	-0.395230	0.106535	-0.615472	-0.256739	0.036558	-0.713981	-0.197930	0.050048	-0.651276	-0.168979	0.036634	-0.659225	
4	0.0200	-0.282740	1.492042	-0.524238	-0.256269	1.479666	-0.714354	-0.234508	1.481227	-0.349197	-0.125417	1.456622	-0.543607	-0.135072	0.974383	-0.427517	-0.152555	0.984719	-0.664468	-0.211151	1.048378	-0.369500	-0.224646	1.061362	-0.701188	-0.317705	1.034643	-0.493570	-0.321934	1.041507	-0.569629	-0.320226	1.034800	-0.531030	-0.233006	0.802576	-0.345391	-0.217887	0.745670	-0.337812	-0.154559	0.760854	-0.335496	-0.163051	0.821191	-0.343866	-0.200547	0.474651	-0.360040	-0.165823	0.466298	-0.478876	-0.282726	0.333098	-0.356810	-0.306970	0.298355	-0.369539	-0.253450	0.270250	-0.370694	-0.233180	0.304535	-0.363648	-0.394524	0.117398	-0.454408	-0.250428	0.033530	-0.381021	-0.195785	0.049494	-0.449419	-0.167890	0.037478	-0.446723	-0.275049	0.779828	-0.726919	-0.250176	0.724782	-0.739987	-0.194900	0.748918	-0.763054	-0.211534	0.806522	-0.753304	-0.215295	0.495622	-0.734739	-0.167403	0.481057	-0.621392	-0.323595	0.295756	-0.708415	-0.339541	0.260877	-0.695280	-0.284211	0.236665	-0.713409	-0.275430	0.278040	-0.725154	-0.394453	0.109039	-0.617061	-0.256482	0.036589	-0.714323	-0.198013	0.050135	-0.651632	-0.169188	0.036663	-0.659182	
5	0.0250	-0.282711	1.496307	-0.524060	-0.256022	1.484584	-0.714091	-0.234483	1.485962	-0.349149	-0.125530	1.461235	-0.543332	-0.134008	0.979372	-0.427543	-0.152233	0.989613	-0.664525	-0.210052	1.053103	-0.369678	-0.224128	1.066225	-0.700940	-0.316915	1.038668	-0.493308	-0.321129	1.045510	-0.569597	-0.319717	1.038824	-0.530821	-0.232273	0.806982	-0.345214	-0.217490	0.749968	-0.337682	-0.154079	0.764781	-0.335890	-0.162235	0.825204	-0.344243	-0.202525	0.478566	-0.359965	-0.168546	0.469909	-0.479115	-0.283934	0.336302	-0.356111	-0.307886	0.301469	-0.368605	-0.254173	0.273620	-0.369707	-0.234216	0.308144	-0.362827	-0.393578	0.119945	-0.452646	-0.250060	0.033536	-0.380652	-0.195811	0.049515	-0.449221	-0.168131	0.037518	-0.446753	-0.275391	0.784443	-0.726669	-0.250788	0.729286	-0.739713	-0.195328	0.753126	-0.762741	-0.211645	0.810794	-0.753031	-0.217748	0.499721	-0.734162	-0.170443	0.485083	-0.620503	-0.324873	0.298774	-0.708754	-0.340480	0.263671	-0.695732	-0.285054	0.240028	-0.714320	-0.276647	0.281550	-0.725831	-0.393526	0.111701	-0.618675	-0.256214	0.036637	-0.714654	-0.198089	0.050254	-0.652022	-0.169403	0.036713	-0.659180	
6	0.0300	-0.282743	1.500763	-0.523896	-0.255802	1.489662	-0.713801	-0.234446	1.490854	-0.349115	-0.125675	1.465994	-0.543072	-0.132961	0.984477	-0.427519	-0.151896	0.994647	-0.664594	-0.208997	1.058017	-0.369839	-0.223699	1.071176	-0.700636	-0.316141	1.042828	-0.493030	-0.320374	1.049675	-0.569475	-0.319068	1.042882	-0.530535	-0.231532	0.811561	-0.345040	-0.217098	0.754425	-0.337544	-0.153592	0.768851	-0.336268	-0.161398	0.829344	-0.344619	-0.204654	0.482634	-0.359907	-0.171216	0.473652	-0.479312	-0.285219	0.339637	-0.355401	-0.308855	0.304677	-0.367674	-0.254922	0.277122	-0.368661	-0.235283	0.311879	-0.361931	-0.392512	0.122586	-0.450929	-0.249665	0.033567	-0.380289	-0.195858	0.049543	-0.448996	-0.168366	0.037602	-0.446757	-0.275656	0.789232	-0.726432	-0.251331	0.733951	-0.739443	-0.195680	0.757502	-0.762397	-0.211685	0.815236	-0.752716	-0.220204	0.503972	-0.733532	-0.173392	0.489298	-0.619589	-0.326118	0.301948	-0.709004	-0.341342	0.266648	-0.696122	-0.285872	0.243562	-0.715270	-0.277865	0.285234	-0.726502	-0.392444	0.114506	-0.620225	-0.255935	0.036707	-0.714979	-0.198137	0.050406	-0.652436	-0.169615	0.036783	-0.659234	
7	0.0350	-0.282816	1.505352	-0.523736	-0.255614	1.494897	-0.713483	-0.234397	1.495896	-0.349124	-0.125867	1.470888	-0.542827	-0.131939	0.989674	-0.427455	-0.151555	0.999805	-0.664667	-0.207984	1.063102	-0.369973	-0.223349	1.076227	-0.700286	-0.315342	1.047098	-0.492753	-0.319634	1.053997	-0.569297	-0.318312	1.047015	-0.530180	-0.230764	0.816247	-0.344828	-0.216707	0.759033	-0.337400	-0.153101	0.773054	-0.336632	-0.160552	0.833602	-0.344990	-0.206921	0.486837	-0.359864	-0.173805	0.477532	-0.479476	-0.286565	0.343082	-0.354658	-0.309855	0.307984	-0.366732	-0.255690	0.280761	-0.367591	-0.236383	0.315753	-0.360965	-0.391303	0.125343	-0.449251	-0.249244	0.033622	-0.379932	-0.195913	0.049581	-0.448746	-0.168597	0.037714	-0.446719	-0.275836	0.794192	-0.726216	-0.251786	0.738782	-0.739192	-0.195942	0.762044	-0.762030	-0.211645	0.819845	-0.752391	-0.222657	0.508374	-0.732833	-0.176201	0.493700	-0.618644	-0.327306	0.305272	-0.709167	-0.342106	0.269758	-0.696451	-0.286639	0.247270	-0.716252	-0.279059	0.289089	-0.727168	-0.391194	0.117447	-0.621739	-0.255645	0.036798	-0.715295	-0.198154	0.050594	-0.652895	-0.169823	0.036870	-0.659366	
